<svg width="17" height="16" viewBox="0 0 17 16" fill="none" xmlns="http://www.w3.org/2000/svg">
<g id="Frame 2254">
<path id="Vector" d="M0.833333 0.200195H15.8333C16.0543 0.200195 16.2663 0.287993 16.4226 0.444273C16.5789 0.600553 16.6667 0.812515 16.6667 1.03353V14.3669C16.6667 14.5879 16.5789 14.7998 16.4226 14.9561C16.2663 15.1124 16.0543 15.2002 15.8333 15.2002H0.833333C0.61232 15.2002 0.400358 15.1124 0.244078 14.9561C0.0877973 14.7998 0 14.5879 0 14.3669V1.03353C0 0.812515 0.0877973 0.600553 0.244078 0.444273C0.400358 0.287993 0.61232 0.200195 0.833333 0.200195ZM8.38333 7.43603L3.04 2.89853L1.96083 4.16853L8.39417 9.63103L14.7117 4.16436L13.6217 2.90353L8.38333 7.43603Z" fill="#7E7E7E"/>
</g>
</svg>
