<svg width="20" height="21" viewBox="0 0 20 21" fill="none" xmlns="http://www.w3.org/2000/svg">
<g id="Frame" clip-path="url(#clip0_5_115)">
<path id="Vector" d="M17.5 13.8835V16.8302C17.5001 17.0412 17.4202 17.2443 17.2763 17.3987C17.1325 17.553 16.9355 17.6471 16.725 17.6619C16.3608 17.6869 16.0633 17.7002 15.8333 17.7002C8.46917 17.7002 2.5 11.731 2.5 4.36686C2.5 4.13686 2.5125 3.83936 2.53833 3.4752C2.5531 3.26473 2.64715 3.0677 2.8015 2.92387C2.95585 2.78003 3.15902 2.7001 3.37 2.7002H6.31667C6.42003 2.70009 6.51975 2.73841 6.59644 2.80771C6.67313 2.87701 6.72133 2.97235 6.73167 3.0752C6.75083 3.26686 6.76833 3.41936 6.785 3.5352C6.95061 4.69096 7.29 5.81506 7.79167 6.86936C7.87083 7.03603 7.81917 7.2352 7.66917 7.34186L5.87083 8.62686C6.97038 11.1889 9.01212 13.2306 11.5742 14.3302L12.8575 12.5352C12.91 12.4619 12.9865 12.4093 13.0737 12.3866C13.161 12.3639 13.2535 12.3725 13.335 12.411C14.3892 12.9117 15.513 13.2503 16.6683 13.4152C16.7842 13.4319 16.9367 13.4502 17.1267 13.4685C17.2294 13.4791 17.3245 13.5273 17.3936 13.604C17.4628 13.6807 17.5001 13.7803 17.5 13.8835Z" fill="#7E7E7E"/>
</g>
<defs>
<clipPath id="clip0_5_115">
<rect width="20" height="20" fill="white" transform="translate(0 0.200195)"/>
</clipPath>
</defs>
</svg>
