<svg width="18" height="19" viewBox="0 0 18 19" fill="none" xmlns="http://www.w3.org/2000/svg">
<g id="Frame" clip-path="url(#clip0_5_119)">
<path id="Vector" d="M13.773 13.2231L9 17.9961L4.227 13.2231C3.28301 12.2791 2.64014 11.0764 2.3797 9.76702C2.11925 8.45765 2.25293 7.10046 2.76382 5.86706C3.27472 4.63367 4.13988 3.57947 5.24991 2.83777C6.35994 2.09607 7.66498 1.7002 9 1.7002C10.335 1.7002 11.6401 2.09607 12.7501 2.83777C13.8601 3.57947 14.7253 4.63367 15.2362 5.86706C15.7471 7.10046 15.8808 8.45765 15.6203 9.76702C15.3599 11.0764 14.717 12.2791 13.773 13.2231ZM9 9.95014C9.39783 9.95014 9.77936 9.7921 10.0607 9.5108C10.342 9.22949 10.5 8.84796 10.5 8.45014C10.5 8.05231 10.342 7.67078 10.0607 7.38948C9.77936 7.10817 9.39783 6.95014 9 6.95014C8.60218 6.95014 8.22065 7.10817 7.93934 7.38948C7.65804 7.67078 7.5 8.05231 7.5 8.45014C7.5 8.84796 7.65804 9.22949 7.93934 9.5108C8.22065 9.7921 8.60218 9.95014 9 9.95014Z" fill="#7E7E7E"/>
</g>
<defs>
<clipPath id="clip0_5_119">
<rect width="18" height="18" fill="white" transform="translate(0 0.200195)"/>
</clipPath>
</defs>
</svg>
