<svg width="40" height="40" viewBox="0 0 40 40" fill="none" xmlns="http://www.w3.org/2000/svg">
<g id="Group 195">
<circle id="Ellipse 6" cx="20" cy="19.7002" r="19.1" stroke="#ECECEC" stroke-width="0.8"/>
<path id="Path 1105" d="M10.8235 24.8989C12.5479 26.0047 14.554 26.5892 16.6015 26.5824C18.012 26.5923 19.4105 26.3214 20.7155 25.7854C22.0206 25.2494 23.2062 24.4589 24.2036 23.4601C25.2009 22.4612 25.9901 21.2739 26.5252 19.967C27.0603 18.66 27.3307 17.2597 27.3206 15.8473V15.3591C28.048 14.8283 28.6762 14.173 29.1765 13.4238C28.4893 13.7283 27.7604 13.9278 27.0141 14.0154C27.8029 13.5481 28.395 12.8093 28.6798 11.9369C27.9412 12.3786 27.1323 12.69 26.2885 12.8579C25.6027 12.1289 24.6559 11.7025 23.6563 11.6726C22.6567 11.6426 21.6861 12.0115 20.9581 12.6982C20.4774 13.1514 20.1241 13.7231 19.9332 14.3559C19.7424 14.9888 19.7209 15.6607 19.8707 16.3045C18.3712 16.2281 16.9045 15.8363 15.5663 15.1544C14.2281 14.4726 13.0484 13.5161 12.104 12.3472C11.6187 13.1794 11.4692 14.166 11.6862 15.105C11.9031 16.0439 12.4701 16.8643 13.2711 17.3986C12.668 17.3824 12.0777 17.2209 11.5501 16.9278V16.9738C11.5551 17.8438 11.8597 18.6854 12.4125 19.3566C12.9653 20.0278 13.7323 20.4875 14.5842 20.6581C14.2607 20.7457 13.9271 20.79 13.5919 20.79C13.3543 20.789 13.1172 20.7662 12.8837 20.7215C13.1248 21.4706 13.5934 22.1256 14.2242 22.5951C14.855 23.0646 15.6165 23.325 16.4023 23.3401C15.0686 24.3892 13.4208 24.9579 11.7249 24.9542C11.4236 24.9527 11.1227 24.9343 10.8235 24.8989Z" fill="#ECECEC"/>
</g>
</svg>
