<svg width="40" height="40" viewBox="0 0 40 40" fill="none" xmlns="http://www.w3.org/2000/svg">
<g id="Group 197">
<circle id="Ellipse 4" cx="20" cy="19.7002" r="19.1" stroke="#ECECEC" stroke-width="0.8"/>
<g id="Group 192">
<path id="Path 1106" d="M19.9981 13.1114C22.1425 13.1114 22.396 13.1114 23.2407 13.1588C23.7497 13.165 24.254 13.2587 24.7313 13.4357C25.0793 13.569 25.3953 13.7738 25.6591 14.0371C25.9228 14.3003 26.1282 14.6159 26.2621 14.9637C26.4356 15.4392 26.5265 15.9409 26.5309 16.447C26.5685 17.2944 26.5783 17.548 26.5783 19.6897C26.5783 21.8314 26.5783 22.0875 26.5309 22.9322C26.5247 23.4412 26.431 23.9454 26.254 24.4227C26.1203 24.7687 25.9158 25.0829 25.6536 25.3452C25.3914 25.6074 25.0772 25.8118 24.7313 25.9455C24.254 26.1224 23.7497 26.2161 23.2407 26.2223C22.4014 26.2752 22.1471 26.2752 19.9955 26.2752C17.8439 26.2752 17.5976 26.275 16.7529 26.2276C16.2439 26.2212 15.7397 26.1277 15.2624 25.9509C14.9164 25.8173 14.6023 25.6126 14.3401 25.3504C14.0778 25.0882 13.8733 24.7741 13.7396 24.4282C13.5615 23.9502 13.467 23.4451 13.4602 22.935C13.4225 22.0876 13.4127 21.834 13.4127 19.6923C13.4127 17.5506 13.4127 17.2945 13.4602 16.4499C13.4692 15.9419 13.5653 15.4392 13.7441 14.9637C13.8777 14.6177 14.0822 14.3035 14.3444 14.0412C14.6067 13.779 14.9209 13.5745 15.2668 13.4409C15.7441 13.2638 16.2484 13.1701 16.7574 13.1641C17.6048 13.1265 17.8583 13.1166 20 13.1166M20 11.6709C17.8207 11.6709 17.5465 11.6709 16.6857 11.7184C16.0199 11.7313 15.3613 11.857 14.7375 12.0901C14.2042 12.2963 13.7199 12.6117 13.3156 13.016C12.9113 13.4203 12.596 13.9047 12.3898 14.4379C12.1567 15.0617 12.0309 15.7205 12.018 16.3862C11.9777 17.2434 11.9706 17.5148 11.9706 19.7004C11.9706 21.886 11.9706 22.1538 12.018 23.0146C12.031 23.6804 12.1567 24.3392 12.3898 24.9629C12.5961 25.4961 12.9114 25.9803 13.3157 26.3846C13.72 26.7889 14.2043 27.1044 14.7375 27.3107C15.3613 27.5436 16.02 27.6691 16.6857 27.6823C17.5429 27.7226 17.8144 27.7297 20 27.7297C22.1856 27.7297 22.4534 27.7297 23.3142 27.6823C23.9799 27.6692 24.6387 27.5437 25.2625 27.3107C25.7957 27.1044 26.2799 26.7889 26.6842 26.3846C27.0884 25.9803 27.4039 25.4961 27.6102 24.9629C27.8442 24.3393 27.9708 23.6805 27.9846 23.0146C28.0249 22.1574 28.032 21.886 28.032 19.7004C28.032 17.5148 28.032 17.247 27.9846 16.3862C27.9717 15.7205 27.8461 15.0617 27.6129 14.4379C27.4067 13.9047 27.0913 13.4203 26.687 13.016C26.2827 12.6117 25.7984 12.2963 25.2651 12.0901C24.6414 11.857 23.9827 11.7312 23.3169 11.7184C22.4597 11.678 22.1882 11.6709 20.0026 11.6709H20Z" fill="#ECECEC"/>
<path id="Path 1107" d="M19.9959 15.5691C18.9031 15.5691 17.855 16.0033 17.0823 16.776C16.3096 17.5488 15.8755 18.5968 15.8755 19.6896C15.8755 20.7824 16.3096 21.8304 17.0823 22.6032C17.855 23.3759 18.9031 23.8101 19.9959 23.8101C21.0887 23.8101 22.1367 23.3759 22.9094 22.6032C23.6822 21.8304 24.1164 20.7824 24.1164 19.6896C24.1164 18.5968 23.6822 17.5488 22.9094 16.776C22.1367 16.0033 21.0887 15.5691 19.9959 15.5691ZM19.9959 22.3563C19.2867 22.3541 18.6074 22.0704 18.1073 21.5675C17.6072 21.0645 17.3274 20.3835 17.3293 19.6743C17.3315 18.9651 17.6152 18.2858 18.1181 17.7857C18.621 17.2856 19.302 17.0059 20.0112 17.0078C20.7204 17.01 21.3997 17.2935 21.8998 17.7964C22.3998 18.2993 22.6796 18.9804 22.6777 19.6896C22.6777 20.399 22.396 21.0792 21.8944 21.5808C21.3928 22.0824 20.7125 22.3643 20.0031 22.3643H19.9959V22.3563Z" fill="#ECECEC"/>
<path id="Ellipse 85" d="M24.29 16.3698C24.8219 16.3698 25.2531 15.9386 25.2531 15.4067C25.2531 14.8748 24.8219 14.4436 24.29 14.4436C23.7581 14.4436 23.3269 14.8748 23.3269 15.4067C23.3269 15.9386 23.7581 16.3698 24.29 16.3698Z" fill="#ECECEC"/>
</g>
</g>
</svg>
