<svg width="39" height="40" viewBox="0 0 39 40" fill="none" xmlns="http://www.w3.org/2000/svg">
<g id="Group 203">
<circle id="Ellipse 4" cx="19.5" cy="19.7002" r="19.1" stroke="#ECECEC" stroke-width="0.8"/>
<g id="Group 193">
<path id="Vector" d="M19.0294 27.9136C17.9435 27.9136 16.8898 27.6976 15.8973 27.2722C14.9406 26.8621 14.0825 26.2753 13.3454 25.5288C12.6098 24.783 12.0326 23.9146 11.629 22.9477C11.2116 21.9472 11 20.8861 11 19.7923C11 18.6984 11.2116 17.6366 11.629 16.6361C12.0326 15.6699 12.6098 14.8015 13.3454 14.0557C14.0825 13.3092 14.9406 12.7225 15.8973 12.3123C16.8898 11.8869 17.9435 11.6709 19.0294 11.6709C20.7363 11.6709 22.3665 12.2058 23.7443 13.218L22.1965 15.324C21.2712 14.6439 20.1758 14.2841 19.0294 14.2841C16.0433 14.2841 13.614 16.755 13.614 19.7923C13.614 22.8295 16.0433 25.2997 19.0294 25.2997C22.0155 25.2997 24.4449 22.8295 24.4449 19.7923H27.0588C27.0588 20.8861 26.8472 21.9472 26.4298 22.9477C26.0262 23.9146 25.449 24.783 24.7134 25.5288C23.9764 26.2753 23.1175 26.8621 22.1608 27.2722C21.1683 27.6976 20.1145 27.9136 19.0294 27.9136Z" fill="#ECECEC"/>
<path id="Vector_2" d="M18.6636 18.4287H27.0338V21.0419H18.6636V18.4287Z" fill="#ECECEC"/>
</g>
</g>
</svg>
