<svg width="39" height="40" viewBox="0 0 39 40" fill="none" xmlns="http://www.w3.org/2000/svg">
<g id="Group 196">
<circle id="Ellipse 5" cx="19.5" cy="19.7002" r="19.1" stroke="#ECECEC" stroke-width="0.8"/>
<g id="Group 194">
<path id="Vector" d="M27.0165 26.112H23.6108C23.6108 26.0598 23.6108 26.0109 23.6108 25.9619C23.6108 24.1942 23.6104 22.4262 23.6114 20.6585C23.6116 20.2924 23.5835 19.9304 23.4835 19.5775C23.1534 18.4137 21.8202 18.0105 20.9191 18.8072C20.497 19.1805 20.2647 19.6539 20.2626 20.2332C20.261 20.6479 20.2603 21.0627 20.2603 21.4775C20.2601 22.9739 20.2603 24.4705 20.2603 25.9669V26.1101H16.8643V15.8887H20.2557V17.1365C20.2685 17.1455 20.2815 17.1547 20.2944 17.1637C20.2994 17.1453 20.3 17.1234 20.3103 17.1086C21.0146 16.089 21.9926 15.6326 23.1973 15.6422C24.0877 15.6495 24.9075 15.8773 25.6051 16.4673C26.233 16.9982 26.6 17.696 26.8098 18.4888C26.9543 19.0345 27.015 19.5925 27.0156 20.1565C27.0179 22.1065 27.0165 24.0566 27.0167 26.0066V26.1116L27.0165 26.112Z" fill="#ECECEC"/>
<path id="Vector_2" d="M11.7877 15.959H14.9604V26.1116H11.7877V15.959Z" fill="#ECECEC"/>
<path id="Vector_3" d="M13.3632 14.69C12.7959 14.6681 12.2917 14.5077 11.9114 14.0818C11.4618 13.5781 11.3669 12.9868 11.5776 12.3613C11.7888 11.7344 12.2667 11.3841 12.91 11.2529C13.4025 11.1524 13.8872 11.1897 14.3432 11.4152C14.9683 11.7244 15.3432 12.4112 15.2684 13.0933C15.1856 13.847 14.7132 14.4055 13.9852 14.5903C13.7826 14.6418 13.5707 14.6578 13.363 14.6902L13.3632 14.69Z" fill="#ECECEC"/>
</g>
</g>
</svg>
